# xmcd CD database file
#
# Track frame offsets:
#	150
#	13331
#	26095
#	40251
#	53002
#	66128
#	79014
#	92934
#	108346
#	121584
#	135955
#	149386
#	163840
#	177685
#	191992
#	206131
#	220020
#	233674
#	246380
#	259006
#	271296
#	284847
#
# Disc length: 3981 seconds
#
# Revision: 0
# Processed by: cddbd v1.4PL0 Copyright (c) Steve Scherf et al.
# Submitted via: CDex 1.50
#
DISCID=4f0f8b16
DTITLE=Fiddlin' Doc Roberts - Volume 2 (1928-1930)
DYEAR=1900
DGENRE=Old-Time
TTITLE0=I've Got A Girl Named Susie
TTITLE1=Run Smoke Run
TTITLE2=Shoot That Turkey Buzzard
TTITLE3=Farewell Waltz
TTITLE4=Mandolin Rag
TTITLE5=Take Those Lips Away
TTITLE6=Martha Campbell
TTITLE7=Waltz The Hall
TTITLE8=The Girl I Left Behind Me
TTITLE9=Who's Been Here Since I've Been Gone?
TTITLE10=Honeymoon Waltz
TTITLE11=Jacks Creek Waltz
TTITLE12=Rocky Mountain Goat
TTITLE13=The Devil In Georgia
TTITLE14=Johnny Inchin' Along
TTITLE15=Deer Walk
TTITLE16=Shamrock Schottische
TTITLE17=Rye Straw
TTITLE18=Sally Gooden
TTITLE19=Chicken Reel
TTITLE20=Hawk's Got A Chicken
TTITLE21=All That I've Got's Done Gone
EXTD=
EXTT0=
EXTT1=
EXTT2=
EXTT3=
EXTT4=
EXTT5=
EXTT6=
EXTT7=
EXTT8=
EXTT9=
EXTT10=
EXTT11=
EXTT12=
EXTT13=
EXTT14=
EXTT15=
EXTT16=
EXTT17=
EXTT18=
EXTT19=
EXTT20=
EXTT21=
PLAYORDER=
